<?xml version="1.0" encoding="UTF-8" standalone="no"?>
<svg
   xmlns:ooo="http://xml.openoffice.org/svg/export"
   xmlns:dc="http://purl.org/dc/elements/1.1/"
   xmlns:cc="http://creativecommons.org/ns#"
   xmlns:rdf="http://www.w3.org/1999/02/22-rdf-syntax-ns#"
   xmlns:svg="http://www.w3.org/2000/svg"
   xmlns="http://www.w3.org/2000/svg"
   xmlns:sodipodi="http://sodipodi.sourceforge.net/DTD/sodipodi-0.dtd"
   xmlns:inkscape="http://www.inkscape.org/namespaces/inkscape"
   version="1.2"
   width="200"
   height="200"
   viewBox="0 0 5644.4442 5644.4445"
   preserveAspectRatio="xMidYMid"
   clip-path="url(#presentation_clip_path)"
   xml:space="preserve"
   id="svg2"
   inkscape:version="0.48.2 r9819"
   sodipodi:docname="bahn.svg"
   inkscape:export-filename="/Users/Oliver/Development/open-source/bahn/static/apple-touch-icon-precomposed.png"
   inkscape:export-xdpi="68.400002"
   inkscape:export-ydpi="68.400002"><metadata
   id="metadata174"><rdf:RDF><cc:Work
       rdf:about=""><dc:format>image/svg+xml</dc:format><dc:type
         rdf:resource="http://purl.org/dc/dcmitype/StillImage" /><dc:title /></cc:Work></rdf:RDF></metadata><sodipodi:namedview
   pagecolor="#ffffff"
   bordercolor="#666666"
   borderopacity="1"
   objecttolerance="10"
   gridtolerance="10"
   guidetolerance="10"
   inkscape:pageopacity="0"
   inkscape:pageshadow="2"
   inkscape:window-width="1160"
   inkscape:window-height="757"
   id="namedview172"
   showgrid="false"
   inkscape:zoom="2.0157395"
   inkscape:cx="124.47729"
   inkscape:cy="93.742159"
   inkscape:window-x="289"
   inkscape:window-y="0"
   inkscape:window-maximized="0"
   inkscape:current-layer="svg2"
   showguides="true"
   inkscape:guide-bbox="true"
   fit-margin-top="0"
   fit-margin-left="0"
   fit-margin-right="0"
   fit-margin-bottom="0" />
 <defs
   class="ClipPathGroup"
   id="defs4">
  <clipPath
   id="presentation_clip_path"
   clipPathUnits="userSpaceOnUse">
   <rect
   x="0"
   y="0"
   width="16933"
   height="25400"
   id="rect7" />
  </clipPath>
 
  
 
   
  
    
   
     
     
     
     
     
     
     
     
     
     
     
     
     
     
     
     
     
     
     
     
     
     
     
    
      
     
       
      </defs>
 <defs
   class="TextShapeIndex"
   id="defs9">
  <g
   ooo:slide="id1"
   ooo:id-list="id3 id4 id5 id6 id7 id8 id9 id10 id11 id12 id13 id14 id15 id16 id17 id18 id19 id20 id21 id22 id23 id24"
   id="g11" />
 </defs>
 <defs
   class="EmbeddedBulletChars"
   id="defs13">
  <g
   id="bullet-char-template(57356)"
   transform="scale(4.8828125e-4,-4.8828125e-4)">
   <path
   d="M 580,1141 1163,571 580,0 -4,571 580,1141 z"
   id="path16"
   inkscape:connector-curvature="0" />
  </g>
  <g
   id="bullet-char-template(57354)"
   transform="scale(4.8828125e-4,-4.8828125e-4)">
   <path
   d="m 8,1128 1129,0 L 1137,0 8,0 8,1128 z"
   id="path19"
   inkscape:connector-curvature="0" />
  </g>
  <g
   id="bullet-char-template(10146)"
   transform="scale(4.8828125e-4,-4.8828125e-4)">
   <path
   d="M 174,0 602,739 174,1481 1456,739 174,0 z m 1184,739 -1049,607 350,-607 699,0 z"
   id="path22"
   inkscape:connector-curvature="0" />
  </g>
  <g
   id="bullet-char-template(10132)"
   transform="scale(4.8828125e-4,-4.8828125e-4)">
   <path
   d="M 2015,739 1276,0 717,0 l 543,543 -1086,0 0,393 1086,0 -543,545 557,0 741,-742 z"
   id="path25"
   inkscape:connector-curvature="0" />
  </g>
  <g
   id="bullet-char-template(10007)"
   transform="scale(4.8828125e-4,-4.8828125e-4)">
   <path
   d="m 0,-2 c -7,16 -16,29 -25,39 l 381,530 c -94,256 -141,385 -141,387 0,25 13,38 40,38 9,0 21,-2 34,-5 21,4 42,12 65,25 l 27,-13 111,-251 280,301 64,-25 24,25 c 21,-10 41,-24 62,-43 C 886,937 835,863 770,784 769,783 710,716 594,584 L 774,223 c 0,-27 -21,-55 -63,-84 l 16,-20 C 717,90 699,76 672,76 641,76 570,178 457,381 L 164,-76 c -22,-34 -53,-51 -92,-51 -42,0 -63,17 -64,51 -7,9 -10,24 -10,44 0,9 1,19 2,30 z"
   id="path28"
   inkscape:connector-curvature="0" />
  </g>
  <g
   id="bullet-char-template(10004)"
   transform="scale(4.8828125e-4,-4.8828125e-4)">
   <path
   d="M 285,-33 C 182,-33 111,30 74,156 52,228 41,333 41,471 c 0,78 14,145 41,201 34,71 87,106 158,106 53,0 88,-31 106,-94 l 23,-176 c 8,-64 28,-97 59,-98 l 735,706 c 11,11 33,17 66,17 42,0 63,-15 63,-46 l 0,-122 c 0,-36 -10,-64 -30,-84 L 442,47 C 390,-6 338,-33 285,-33 z"
   id="path31"
   inkscape:connector-curvature="0" />
  </g>
  <g
   id="bullet-char-template(9679)"
   transform="scale(4.8828125e-4,-4.8828125e-4)">
   <path
   d="M 813,0 C 632,0 489,54 383,161 276,268 223,411 223,592 c 0,181 53,324 160,431 106,107 249,161 430,161 179,0 323,-54 432,-161 108,-107 162,-251 162,-431 0,-180 -54,-324 -162,-431 C 1136,54 992,0 813,0 z"
   id="path34"
   inkscape:connector-curvature="0" />
  </g>
  <g
   id="bullet-char-template(8226)"
   transform="scale(4.8828125e-4,-4.8828125e-4)">
   <path
   d="m 346,457 c -73,0 -137,26 -191,78 -54,51 -81,114 -81,188 0,73 27,136 81,188 54,52 118,78 191,78 73,0 134,-26 185,-79 51,-51 77,-114 77,-187 0,-75 -25,-137 -76,-188 -50,-52 -112,-78 -186,-78 z"
   id="path37"
   inkscape:connector-curvature="0" />
  </g>
  <g
   id="bullet-char-template(8211)"
   transform="scale(4.8828125e-4,-4.8828125e-4)">
   <path
   d="m -4,459 1139,0 0,147 -1139,0 0,-147 z"
   id="path40"
   inkscape:connector-curvature="0" />
  </g>
 </defs>
 <defs
   class="TextEmbeddedBitmaps"
   id="defs42" />
 <g
   id="g44"
   transform="translate(-4.4080946e-4,-19485.055)">
  <g
   id="id2"
   class="Master_Slide">
   <g
   id="bg-id2"
   class="Background" />
   <g
   id="bo-id2"
   class="BackgroundObjects" />
  </g>
 </g>
 <g
   class="com.sun.star.drawing.PolyPolygonShape"
   id="g162"
   transform="translate(-4.4080946e-4,-19485.055)">
      <g
   id="id23">
       
      </g>
     </g>
<g
   id="g3858"
   transform="translate(1890.889,0)"><g
     transform="matrix(0.22460534,0,0,0.22460534,-4.4080946e-4,0.21050842)"
     id="g56"
     class="com.sun.star.drawing.ClosedBezierShape">
      <g
   id="id3">
       <path
   style="fill:#ffffff;stroke:none"
   inkscape:connector-curvature="0"
   id="path59"
   d="m 989,204 14817,0 c 381,28 814,418 835,877 l 0,23136 c 1,364 -416,853 -888,877 l -14796,0 C 621,25073 95,24551 80,24206 L 101,1092 C 94,683 605,199 989,204 z" />
      </g>
     </g><g
     transform="matrix(0.22460534,0,0,0.22460534,-4.4080946e-4,0.21050842)"
     id="g61"
     class="com.sun.star.drawing.ClosedBezierShape">
      <g
   id="id4">
       <path
   style="fill:none;stroke:#003399;stroke-width:35"
   inkscape:connector-curvature="0"
   id="path64"
   d="M 1143,594 C 728,576 491,859 507,1313 l 0,22678 c 2,306 132,673 553,680 l 14621,19 c 422,-7 553,-374 554,-680 l 0,-22699 c 16,-454 -221,-737 -636,-719 l -14456,2 z" />
      </g>
     </g><g
     transform="matrix(0.22460534,0,0,0.22460534,-4.4080946e-4,0.21050842)"
     id="g66"
     class="com.sun.star.drawing.ClosedBezierShape">
      <g
   id="id5">
       <path
   style="fill:none;stroke:#000000;stroke-width:71"
   inkscape:connector-curvature="0"
   id="path69"
   d="m 989,204 14817,0 c 381,28 814,418 835,877 l 0,23136 c 1,364 -416,853 -888,877 l -14796,0 C 621,25073 95,24551 80,24206 L 101,1092 C 94,683 605,199 989,204 z" />
      </g>
     </g><g
     transform="matrix(0.22460534,0,0,0.22460534,-4.4080946e-4,0.21050842)"
     id="g71"
     class="com.sun.star.drawing.ClosedBezierShape">
      <g
   id="id6">
       <path
   style="fill:#154889;fill-opacity:1;stroke:none"
   inkscape:connector-curvature="0"
   id="path74"
   d="M 1143,594 C 728,576 491,859 507,1313 l 0,22678 c 2,306 132,673 553,680 l 14621,19 c 422,-7 553,-374 554,-680 l 0,-22699 c 16,-454 -221,-737 -636,-719 l -14456,2 z" />
      </g>
     </g><g
     transform="matrix(0.22460534,0,0,0.22460534,-4.4080946e-4,0.21050842)"
     id="g82"
     class="com.sun.star.drawing.PolyPolygonShape">
      <g
   id="id7">
       <path
   style="fill:#000000;stroke:none"
   inkscape:connector-curvature="0"
   id="path85"
   d="M 1,-1 1,0 1,0 0,0 1,-1 z" />
      </g>
     </g><g
     transform="matrix(0.22460534,0,0,0.22460534,-4.4080946e-4,0.21050842)"
     id="g87"
     class="com.sun.star.drawing.PolyPolygonShape">
      <g
   id="id8">
       <path
   style="fill:#000000;stroke:none"
   inkscape:connector-curvature="0"
   id="path90"
   d="M 0,-1 1,-1 1,0 0,0 0,-1 z" />
      </g>
     </g><g
     transform="matrix(0.22460534,0,0,0.22460534,-4.4080946e-4,0.21050842)"
     id="g92"
     class="com.sun.star.drawing.PolyPolygonShape">
      <g
   id="id9">
       <path
   style="fill:#000000;stroke:none"
   inkscape:connector-curvature="0"
   id="path95"
   d="M 0,0 0,0 0,-1 1,0 0,0 z M 1,0 0,-1 0,0 1,0 z" />
      </g>
     </g><g
     transform="matrix(0.22460534,0,0,0.22460534,-4.4080946e-4,0.21050842)"
     id="g97"
     class="com.sun.star.drawing.PolyPolygonShape">
      <g
   id="id10">
       <path
   style="fill:#000000;stroke:none"
   inkscape:connector-curvature="0"
   id="path100"
   d="M 2,0 1,0 1,0 1,0 0,0 0,0 1,0 1,-1 1,-1 2,0 z" />
      </g>
     </g><g
     transform="matrix(0.22460534,0,0,0.22460534,-4.4080946e-4,0.21050842)"
     id="g102"
     class="com.sun.star.drawing.PolyPolygonShape">
      <g
   id="id11">
       <path
   style="fill:#000000;stroke:none"
   inkscape:connector-curvature="0"
   id="path105"
   d="m 0,0 0,-1 0,0 0,0 0,0 0,0 0,0 0,0 0,0 0,0 0,0 0,0 0,0 0,0 0,0 0,0 0,0 0,0 0,0 0,0 0,1 z" />
      </g>
     </g><g
     transform="matrix(0.22460534,0,0,0.22460534,-4.4080946e-4,0.21050842)"
     id="g107"
     class="com.sun.star.drawing.PolyPolygonShape">
      <g
   id="id12">
       <path
   style="fill:#000000;stroke:none"
   inkscape:connector-curvature="0"
   id="path110"
   d="m 0,0 0,0 0,0 0,-1 0,0 0,0 0,1 0,0 1,-1 0,0 0,0 0,0 0,0 -1,1 z" />
      </g>
     </g><g
     transform="matrix(0.22460534,0,0,0.22460534,-4.4080946e-4,0.21050842)"
     id="g112"
     class="com.sun.star.drawing.ClosedBezierShape">
      <g
   id="id13">
       <path
   style="fill:#000000;stroke:none"
   inkscape:connector-curvature="0"
   id="path115"
   d="M 1,0 C 0,0 0,0 0,0 l 0,0 c 0,-1 0,-1 0,-1 l 1,0 0,0 0,1 z" />
      </g>
     </g><g
     transform="matrix(0.22460534,0,0,0.22460534,-4.4080946e-4,0.21050842)"
     id="g117"
     class="com.sun.star.drawing.PolyPolygonShape">
      <g
   id="id14">
       <path
   style="fill:#000000;stroke:none"
   inkscape:connector-curvature="0"
   id="path120"
   d="M 0,0 0,0 z" />
      </g>
     </g><g
     transform="matrix(0.22460534,0,0,0.22460534,-4.4080946e-4,0.21050842)"
     id="g122"
     class="com.sun.star.drawing.PolyPolygonShape">
      <g
   id="id15">
       <path
   style="fill:#000000;stroke:none"
   inkscape:connector-curvature="0"
   id="path125"
   d="M 0,0 1,0 1,0 0,0 z" />
      </g>
     </g><path
     style="fill:#ffffff;stroke:none"
     inkscape:connector-curvature="0"
     id="path130"
     d="m 1759.1096,2422.5805 -503.5655,-2.92 -486.94461,2854.735 952.77641,0 37.7337,-2851.815 z" /><path
     d="m 1998.3384,2422.5805 503.5637,-2.92 486.9415,2854.735 -952.7715,0 -37.7337,-2851.815 z"
     id="path3164"
     inkscape:connector-curvature="0"
     style="fill:#ffffff;stroke:none" /><g
     transform="matrix(0.22460534,0,0,0.22460534,-4.4080946e-4,0.21050842)"
     id="g132"
     class="com.sun.star.drawing.PolyPolygonShape">
      <g
   id="id17">
       <path
   style="fill:#003399;stroke:none"
   inkscape:connector-curvature="0"
   id="path135"
   d="m 3892,11723 0,0 z" />
      </g>
     </g><g
     transform="matrix(0.22460534,0,0,0.22460534,-4.4080946e-4,0.21050842)"
     id="g137"
     class="com.sun.star.drawing.PolyPolygonShape">
      <g
   id="id18">
       <path
   style="fill:#003399;stroke:none"
   inkscape:connector-curvature="0"
   id="path140"
   d="m 5375,13206 0,0 z" />
      </g>
     </g><g
     transform="matrix(0.22460534,0,0,0.22460534,-4.4080946e-4,0.21050842)"
     id="g142"
     class="com.sun.star.drawing.PolyPolygonShape">
      <g
   id="id19">
       <path
   style="fill:#003399;stroke:none"
   inkscape:connector-curvature="0"
   id="path145"
   d="m 11380,11723 0,0 z" />
      </g>
     </g><g
     transform="matrix(0.22460534,0,0,0.22460534,-4.4080946e-4,0.21050842)"
     id="g147"
     class="com.sun.star.drawing.PolyPolygonShape">
      <g
   id="id20">
       <path
   style="fill:#003399;stroke:none"
   inkscape:connector-curvature="0"
   id="path150"
   d="m 12863,13206 0,0 z" />
      </g>
     </g><g
     style="fill:#ffffff"
     transform="matrix(0.22460534,0,0,0.22460534,-4.4080946e-4,12.888508)"
     id="g152"
     class="com.sun.star.drawing.PolyPolygonShape">
      <g
   style="fill:#ffffff"
   id="id21">
       <path
   sodipodi:nodetypes="ccccc"
   style="fill:#ffffff;stroke:none"
   inkscape:connector-curvature="0"
   id="path155"
   d="m 7893.1139,9266.371 -2049.5651,5.1277 1382.4878,-7511.7257 781.9674,0 z" />
      </g>
     </g><g
     transform="matrix(0.22460534,0,0,0.22460534,-4.4080946e-4,0.21050842)"
     style="fill:#ffffff"
     id="g167"
     class="com.sun.star.drawing.PolyPolygonShape">
      <g
   style="fill:#ffffff"
   id="id24">
       <path
   sodipodi:nodetypes="ccccccccc"
   style="fill:#ffffff;stroke:none"
   inkscape:connector-curvature="0"
   id="path170"
   d="m 1720,9494 0,530 1960.4444,0 0,748 965.5556,0 0,-748 c 10094.629,-32.8625 -6.71,18.879 10311,0 l -27,-554 z" />
      <path
   d="m 14957,9494 0,530 -1960.444,0 0,748 -965.556,0 0,-748 c -10094.629,-32.8625 6.71,18.879 -10311,0 l 27,-554 z"
   id="path3121"
   inkscape:connector-curvature="0"
   style="fill:#ffffff;stroke:none"
   sodipodi:nodetypes="ccccccccc" /></g>
     </g><g
     class="com.sun.star.drawing.PolyPolygonShape"
     id="g3167"
     transform="matrix(-0.22460548,0,0,0.22460548,3726.6427,12.888508)"
     style="fill:#ffffff">
      <g
   id="g3169"
   style="fill:#ffffff">
       <path
   d="m 7893.1139,9266.371 -2049.5651,5.1277 1382.4878,-7511.7257 781.9674,0 z"
   id="path3171"
   inkscape:connector-curvature="0"
   style="fill:#ffffff;stroke:none"
   sodipodi:nodetypes="ccccc" />
      </g>
     </g></g><text
   xml:space="preserve"
   style="font-size:2515.62988281px;font-style:normal;font-weight:normal;line-height:125%;letter-spacing:0px;word-spacing:0px;fill:#154889;fill-opacity:1;stroke:none;font-family:Sans"
   x="-4762.3232"
   y="1791.1282"
   id="text3923"
   sodipodi:linespacing="125%"
   transform="matrix(0,-1,1,0,0,0)"><tspan
     sodipodi:role="line"
     id="tspan3925"
     x="-4762.3232"
     y="1791.1282"
     style="font-size:2515.62988281px;font-style:normal;font-variant:normal;font-weight:bold;font-stretch:condensed;text-align:start;line-height:125%;writing-mode:lr-tb;text-anchor:start;fill:#154889;fill-opacity:1;font-family:DIN Condensed;-inkscape-font-specification:'DIN Condensed, Bold Condensed'">bahn</tspan></text>

</svg>